<mxfile host="app.diagrams.net" agent="Mozilla/5.0 (X11; Linux x86_64; rv:144.0) Gecko/20100101 Firefox/144.0" version="28.2.8">
  <diagram name="Page-1" id="1m93vRhClifA-R9A4VPx">
    <mxGraphModel dx="872" dy="1664" grid="1" gridSize="10" guides="1" tooltips="1" connect="1" arrows="1" fold="1" page="1" pageScale="1" pageWidth="827" pageHeight="1169" math="0" shadow="0">
      <root>
        <mxCell id="0" />
        <mxCell id="1" parent="0" />
        <mxCell id="ZPIYKSOgPgK57SCWnawi-1" value="Info_Uma" style="swimlane;fontStyle=1;align=center;verticalAlign=top;childLayout=stackLayout;horizontal=1;startSize=26;horizontalStack=0;resizeParent=1;resizeParentMax=0;resizeLast=0;collapsible=1;marginBottom=0;whiteSpace=wrap;html=1;" parent="1" vertex="1">
          <mxGeometry x="338" y="-830" width="160" height="124" as="geometry" />
        </mxCell>
        <mxCell id="ZPIYKSOgPgK57SCWnawi-2" value="&lt;div&gt;- name : String&lt;/div&gt;&lt;div&gt;- title : String&lt;/div&gt;&lt;div&gt;- birth : String&lt;/div&gt;&lt;div&gt;- height : int&lt;/div&gt;" style="text;strokeColor=none;fillColor=none;align=left;verticalAlign=top;spacingLeft=4;spacingRight=4;overflow=hidden;rotatable=0;points=[[0,0.5],[1,0.5]];portConstraint=eastwest;whiteSpace=wrap;html=1;" parent="ZPIYKSOgPgK57SCWnawi-1" vertex="1">
          <mxGeometry y="26" width="160" height="64" as="geometry" />
        </mxCell>
        <mxCell id="ZPIYKSOgPgK57SCWnawi-3" value="" style="line;strokeWidth=1;fillColor=none;align=left;verticalAlign=middle;spacingTop=-1;spacingLeft=3;spacingRight=3;rotatable=0;labelPosition=right;points=[];portConstraint=eastwest;strokeColor=inherit;" parent="ZPIYKSOgPgK57SCWnawi-1" vertex="1">
          <mxGeometry y="90" width="160" height="8" as="geometry" />
        </mxCell>
        <mxCell id="ZPIYKSOgPgK57SCWnawi-4" value="+ Info_Uma(...)" style="text;strokeColor=none;fillColor=none;align=left;verticalAlign=top;spacingLeft=4;spacingRight=4;overflow=hidden;rotatable=0;points=[[0,0.5],[1,0.5]];portConstraint=eastwest;whiteSpace=wrap;html=1;" parent="ZPIYKSOgPgK57SCWnawi-1" vertex="1">
          <mxGeometry y="98" width="160" height="26" as="geometry" />
        </mxCell>
        <mxCell id="ZPIYKSOgPgK57SCWnawi-9" value="Tamamo_Cross" style="swimlane;fontStyle=0;childLayout=stackLayout;horizontal=1;startSize=26;fillColor=none;horizontalStack=0;resizeParent=1;resizeParentMax=0;resizeLast=0;collapsible=1;marginBottom=0;whiteSpace=wrap;html=1;" parent="1" vertex="1">
          <mxGeometry x="158" y="-620" width="140" height="52" as="geometry" />
        </mxCell>
        <mxCell id="ZPIYKSOgPgK57SCWnawi-10" value="+ getInfo() : String" style="text;strokeColor=none;fillColor=none;align=left;verticalAlign=top;spacingLeft=4;spacingRight=4;overflow=hidden;rotatable=0;points=[[0,0.5],[1,0.5]];portConstraint=eastwest;whiteSpace=wrap;html=1;" parent="ZPIYKSOgPgK57SCWnawi-9" vertex="1">
          <mxGeometry y="26" width="140" height="26" as="geometry" />
        </mxCell>
        <mxCell id="ZPIYKSOgPgK57SCWnawi-13" value="Oguri_Cap" style="swimlane;fontStyle=0;childLayout=stackLayout;horizontal=1;startSize=26;fillColor=none;horizontalStack=0;resizeParent=1;resizeParentMax=0;resizeLast=0;collapsible=1;marginBottom=0;whiteSpace=wrap;html=1;" parent="1" vertex="1">
          <mxGeometry x="347" y="-620" width="140" height="52" as="geometry" />
        </mxCell>
        <mxCell id="ZPIYKSOgPgK57SCWnawi-14" value="+ getInfo() : String" style="text;strokeColor=none;fillColor=none;align=left;verticalAlign=top;spacingLeft=4;spacingRight=4;overflow=hidden;rotatable=0;points=[[0,0.5],[1,0.5]];portConstraint=eastwest;whiteSpace=wrap;html=1;" parent="ZPIYKSOgPgK57SCWnawi-13" vertex="1">
          <mxGeometry y="26" width="140" height="26" as="geometry" />
        </mxCell>
        <mxCell id="ZPIYKSOgPgK57SCWnawi-15" value="Panggil_Uma" style="swimlane;fontStyle=0;childLayout=stackLayout;horizontal=1;startSize=26;fillColor=none;horizontalStack=0;resizeParent=1;resizeParentMax=0;resizeLast=0;collapsible=1;marginBottom=0;whiteSpace=wrap;html=1;" parent="1" vertex="1">
          <mxGeometry x="148" y="-930" width="140" height="52" as="geometry" />
        </mxCell>
        <mxCell id="ZPIYKSOgPgK57SCWnawi-16" value="+ main()" style="text;strokeColor=none;fillColor=none;align=left;verticalAlign=top;spacingLeft=4;spacingRight=4;overflow=hidden;rotatable=0;points=[[0,0.5],[1,0.5]];portConstraint=eastwest;whiteSpace=wrap;html=1;" parent="ZPIYKSOgPgK57SCWnawi-15" vertex="1">
          <mxGeometry y="26" width="140" height="26" as="geometry" />
        </mxCell>
        <mxCell id="z34I2fcSmZ7eWoT8CP3Q-4" value="" style="endArrow=block;endFill=1;html=1;edgeStyle=orthogonalEdgeStyle;align=left;verticalAlign=top;rounded=0;exitX=0.5;exitY=0;exitDx=0;exitDy=0;" edge="1" parent="1" source="ZPIYKSOgPgK57SCWnawi-9">
          <mxGeometry x="-1" relative="1" as="geometry">
            <mxPoint x="322" y="-660" as="sourcePoint" />
            <mxPoint x="418" y="-700" as="targetPoint" />
            <Array as="points">
              <mxPoint x="228" y="-650" />
              <mxPoint x="418" y="-650" />
            </Array>
          </mxGeometry>
        </mxCell>
        <mxCell id="z34I2fcSmZ7eWoT8CP3Q-8" value="Uma_Musume" style="swimlane;fontStyle=0;childLayout=stackLayout;horizontal=1;startSize=26;fillColor=none;horizontalStack=0;resizeParent=1;resizeParentMax=0;resizeLast=0;collapsible=1;marginBottom=0;whiteSpace=wrap;html=1;" vertex="1" parent="1">
          <mxGeometry x="348" y="-930" width="140" height="52" as="geometry" />
        </mxCell>
        <mxCell id="z34I2fcSmZ7eWoT8CP3Q-9" value="+ showAll()" style="text;strokeColor=none;fillColor=none;align=left;verticalAlign=top;spacingLeft=4;spacingRight=4;overflow=hidden;rotatable=0;points=[[0,0.5],[1,0.5]];portConstraint=eastwest;whiteSpace=wrap;html=1;" vertex="1" parent="z34I2fcSmZ7eWoT8CP3Q-8">
          <mxGeometry y="26" width="140" height="26" as="geometry" />
        </mxCell>
        <mxCell id="z34I2fcSmZ7eWoT8CP3Q-14" style="edgeStyle=orthogonalEdgeStyle;rounded=0;orthogonalLoop=1;jettySize=auto;html=1;exitX=0.5;exitY=0;exitDx=0;exitDy=0;" edge="1" parent="1" source="ZPIYKSOgPgK57SCWnawi-13">
          <mxGeometry relative="1" as="geometry">
            <mxPoint x="418" y="-700" as="targetPoint" />
            <mxPoint x="527.9999999999999" y="-628" as="sourcePoint" />
            <Array as="points">
              <mxPoint x="418" y="-620" />
            </Array>
          </mxGeometry>
        </mxCell>
        <mxCell id="z34I2fcSmZ7eWoT8CP3Q-15" value="&amp;nbsp;" style="text;whiteSpace=wrap;html=1;" vertex="1" parent="1">
          <mxGeometry x="290" y="-30" width="40" height="40" as="geometry" />
        </mxCell>
        <mxCell id="z34I2fcSmZ7eWoT8CP3Q-16" value="" style="line;strokeWidth=1;fillColor=none;align=left;verticalAlign=middle;spacingTop=-1;spacingLeft=3;spacingRight=3;rotatable=0;labelPosition=right;points=[];portConstraint=eastwest;strokeColor=inherit;" vertex="1" parent="1">
          <mxGeometry x="288" y="-908" width="60" height="8" as="geometry" />
        </mxCell>
        <mxCell id="z34I2fcSmZ7eWoT8CP3Q-23" value="1" style="edgeLabel;resizable=0;html=1;align=left;verticalAlign=bottom;" connectable="0" vertex="1" parent="1">
          <mxGeometry x="288" y="-904" as="geometry" />
        </mxCell>
        <mxCell id="z34I2fcSmZ7eWoT8CP3Q-24" value="1" style="edgeLabel;resizable=0;html=1;align=left;verticalAlign=bottom;" connectable="0" vertex="1" parent="1">
          <mxGeometry x="338" y="-904" as="geometry" />
        </mxCell>
        <mxCell id="z34I2fcSmZ7eWoT8CP3Q-26" value="&lt;div&gt;Gold_Ship&lt;/div&gt;" style="swimlane;fontStyle=0;childLayout=stackLayout;horizontal=1;startSize=26;fillColor=none;horizontalStack=0;resizeParent=1;resizeParentMax=0;resizeLast=0;collapsible=1;marginBottom=0;whiteSpace=wrap;html=1;" vertex="1" parent="1">
          <mxGeometry x="538" y="-620" width="140" height="52" as="geometry" />
        </mxCell>
        <mxCell id="z34I2fcSmZ7eWoT8CP3Q-27" value="+ getInfo() : String" style="text;strokeColor=none;fillColor=none;align=left;verticalAlign=top;spacingLeft=4;spacingRight=4;overflow=hidden;rotatable=0;points=[[0,0.5],[1,0.5]];portConstraint=eastwest;whiteSpace=wrap;html=1;" vertex="1" parent="z34I2fcSmZ7eWoT8CP3Q-26">
          <mxGeometry y="26" width="140" height="26" as="geometry" />
        </mxCell>
        <mxCell id="z34I2fcSmZ7eWoT8CP3Q-32" value="&amp;nbsp;" style="text;whiteSpace=wrap;html=1;" vertex="1" parent="1">
          <mxGeometry x="400" y="-660" width="40" height="40" as="geometry" />
        </mxCell>
        <mxCell id="z34I2fcSmZ7eWoT8CP3Q-36" value="" style="endArrow=block;endFill=1;html=1;edgeStyle=orthogonalEdgeStyle;align=left;verticalAlign=top;rounded=0;exitX=0.514;exitY=0;exitDx=0;exitDy=0;exitPerimeter=0;" edge="1" parent="1" source="z34I2fcSmZ7eWoT8CP3Q-26">
          <mxGeometry x="-1" relative="1" as="geometry">
            <mxPoint x="229" y="-620" as="sourcePoint" />
            <mxPoint x="419" y="-700" as="targetPoint" />
            <Array as="points">
              <mxPoint x="610" y="-620" />
              <mxPoint x="610" y="-650" />
              <mxPoint x="419" y="-650" />
            </Array>
          </mxGeometry>
        </mxCell>
        <mxCell id="z34I2fcSmZ7eWoT8CP3Q-43" value="1" style="edgeLabel;resizable=0;html=1;align=left;verticalAlign=bottom;" connectable="0" vertex="1" parent="1">
          <mxGeometry x="420" y="-860" as="geometry" />
        </mxCell>
        <mxCell id="z34I2fcSmZ7eWoT8CP3Q-52" value="" style="endArrow=none;html=1;rounded=0;entryX=0.5;entryY=0;entryDx=0;entryDy=0;exitX=0.498;exitY=1.064;exitDx=0;exitDy=0;exitPerimeter=0;strokeColor=default;endFill=0;" edge="1" parent="1" source="z34I2fcSmZ7eWoT8CP3Q-9" target="ZPIYKSOgPgK57SCWnawi-1">
          <mxGeometry width="50" height="50" relative="1" as="geometry">
            <mxPoint x="400" y="-870" as="sourcePoint" />
            <mxPoint x="410" y="-850" as="targetPoint" />
          </mxGeometry>
        </mxCell>
      </root>
    </mxGraphModel>
  </diagram>
</mxfile>
